<?xml version="1.0" standalone="no"?>
<!DOCTYPE svg PUBLIC "-//W3C//DTD SVG 1.1//EN" "http://www.w3.org/Graphics/SVG/1.1/DTD/svg11.dtd">

<svg width="800" height="600" version="1.1" xmlns="http://www.w3.org/2000/svg">
	<ellipse stroke="black" stroke-width="1" fill="none" cx="86.5" cy="314.5" rx="30" ry="30"/>
	<text x="76.5" y="320.5" font-family="Times New Roman" font-size="20">S&#8320;</text>
	<ellipse stroke="black" stroke-width="1" fill="none" cx="202.5" cy="386.5" rx="30" ry="30"/>
	<text x="192.5" y="392.5" font-family="Times New Roman" font-size="20">S&#8321;</text>
	<ellipse stroke="black" stroke-width="1" fill="none" cx="202.5" cy="314.5" rx="30" ry="30"/>
	<text x="192.5" y="320.5" font-family="Times New Roman" font-size="20">S&#8322;</text>
	<ellipse stroke="black" stroke-width="1" fill="none" cx="202.5" cy="55.5" rx="30" ry="30"/>
	<text x="192.5" y="61.5" font-family="Times New Roman" font-size="20">S&#8323;</text>
	<ellipse stroke="black" stroke-width="1" fill="none" cx="330.5" cy="386.5" rx="30" ry="30"/>
	<text x="320.5" y="392.5" font-family="Times New Roman" font-size="20">S&#8324;</text>
	<ellipse stroke="black" stroke-width="1" fill="none" cx="330.5" cy="386.5" rx="24" ry="24"/>
	<ellipse stroke="black" stroke-width="1" fill="none" cx="202.5" cy="487.5" rx="30" ry="30"/>
	<text x="192.5" y="493.5" font-family="Times New Roman" font-size="20">S&#8325;</text>
	<ellipse stroke="black" stroke-width="1" fill="none" cx="366.5" cy="487.5" rx="30" ry="30"/>
	<text x="356.5" y="493.5" font-family="Times New Roman" font-size="20">S&#8326;</text>
	<ellipse stroke="black" stroke-width="1" fill="none" cx="202.5" cy="230.5" rx="30" ry="30"/>
	<text x="192.5" y="236.5" font-family="Times New Roman" font-size="20">S&#8327;</text>
	<ellipse stroke="black" stroke-width="1" fill="none" cx="424.5" cy="314.5" rx="30" ry="30"/>
	<text x="414.5" y="320.5" font-family="Times New Roman" font-size="20">S&#8328;</text>
	<ellipse stroke="black" stroke-width="1" fill="none" cx="424.5" cy="314.5" rx="24" ry="24"/>
	<ellipse stroke="black" stroke-width="1" fill="none" cx="424.5" cy="55.5" rx="30" ry="30"/>
	<text x="414.5" y="61.5" font-family="Times New Roman" font-size="20">S&#8329;</text>
	<ellipse stroke="black" stroke-width="1" fill="none" cx="674.5" cy="230.5" rx="30" ry="30"/>
	<text x="660.5" y="236.5" font-family="Times New Roman" font-size="20">S&#8321;&#8321;</text>
	<ellipse stroke="black" stroke-width="1" fill="none" cx="674.5" cy="230.5" rx="24" ry="24"/>
	<ellipse stroke="black" stroke-width="1" fill="none" cx="674.5" cy="55.5" rx="30" ry="30"/>
	<text x="660.5" y="61.5" font-family="Times New Roman" font-size="20">S&#8321;&#8320;</text>
	<ellipse stroke="black" stroke-width="1" fill="none" cx="674.5" cy="314.5" rx="30" ry="30"/>
	<text x="660.5" y="320.5" font-family="Times New Roman" font-size="20">S&#8321;&#8322;</text>
	<ellipse stroke="black" stroke-width="1" fill="none" cx="674.5" cy="314.5" rx="24" ry="24"/>
	<ellipse stroke="black" stroke-width="1" fill="none" cx="486.5" cy="123.5" rx="30" ry="30"/>
	<text x="472.5" y="129.5" font-family="Times New Roman" font-size="20">S&#8321;&#8323;</text>
	<ellipse stroke="black" stroke-width="1" fill="none" cx="581.5" cy="175.5" rx="30" ry="30"/>
	<text x="567.5" y="181.5" font-family="Times New Roman" font-size="20">S&#8321;&#8324;</text>
	<ellipse stroke="black" stroke-width="1" fill="none" cx="281.5" cy="559.5" rx="30" ry="30"/>
	<text x="267.5" y="565.5" font-family="Times New Roman" font-size="20">S&#8321;&#8325;</text>
	<path stroke="black" stroke-width="1" fill="none" d="M 172.643,387.847 A 100.102,100.102 0 0 1 98.543,341.854"/>
	<polygon fill="black" stroke-width="1" points="172.643,387.847 165.209,382.038 164.163,391.983"/>
	<text x="114.5" y="394.5" font-family="Times New Roman" font-size="20">|-</text>
	<polygon stroke="black" stroke-width="1" points="116.5,314.5 172.5,314.5"/>
	<polygon fill="black" stroke-width="1" points="172.5,314.5 164.5,309.5 164.5,319.5"/>
	<text x="129.5" y="305.5" font-family="Times New Roman" font-size="20">|pre</text>
	<path stroke="black" stroke-width="1" fill="none" d="M 90.279,284.745 A 439.299,439.299 0 0 1 182.816,78.132"/>
	<polygon fill="black" stroke-width="1" points="182.816,78.132 173.893,81.193 181.658,87.494"/>
	<text x="76.5" y="171.5" font-family="Times New Roman" font-size="20">view</text>
	<polygon stroke="black" stroke-width="1" points="232.5,386.5 300.5,386.5"/>
	<polygon fill="black" stroke-width="1" points="300.5,386.5 292.5,381.5 292.5,391.5"/>
	<text x="247.5" y="407.5" font-family="Times New Roman" font-size="20">view</text>
	<polygon stroke="black" stroke-width="1" points="202.5,416.5 202.5,457.5"/>
	<polygon fill="black" stroke-width="1" points="202.5,457.5 207.5,449.5 197.5,449.5"/>
	<text x="207.5" y="443.5" font-family="Times New Roman" font-size="20">n</text>
	<polygon stroke="black" stroke-width="1" points="232.5,487.5 336.5,487.5"/>
	<polygon fill="black" stroke-width="1" points="336.5,487.5 328.5,482.5 328.5,492.5"/>
	<text x="281.5" y="478.5" font-family="Times New Roman" font-size="20">-</text>
	<polygon stroke="black" stroke-width="1" points="340.572,414.759 356.428,459.241"/>
	<polygon fill="black" stroke-width="1" points="356.428,459.241 358.451,450.027 349.032,453.385"/>
	<text x="356.5" y="435.5" font-family="Times New Roman" font-size="20">-</text>
	<path stroke="black" stroke-width="1" fill="none" d="M 232.23,226.653 A 224.41,224.41 0 0 1 404.763,291.936"/>
	<polygon fill="black" stroke-width="1" points="404.763,291.936 402.641,282.744 395.571,289.816"/>
	<text x="329.5" y="231.5" font-family="Times New Roman" font-size="20">view</text>
	<polygon stroke="black" stroke-width="1" points="202.5,85.5 202.5,200.5"/>
	<polygon fill="black" stroke-width="1" points="202.5,200.5 207.5,192.5 197.5,192.5"/>
	<text x="207.5" y="149.5" font-family="Times New Roman" font-size="20">|</text>
	<polygon stroke="black" stroke-width="1" points="232.5,55.5 394.5,55.5"/>
	<polygon fill="black" stroke-width="1" points="394.5,55.5 386.5,50.5 386.5,60.5"/>
	<text x="310.5" y="46.5" font-family="Times New Roman" font-size="20">-</text>
	<polygon stroke="black" stroke-width="1" points="424.5,284.5 424.5,85.5"/>
	<polygon fill="black" stroke-width="1" points="424.5,85.5 419.5,93.5 429.5,93.5"/>
	<text x="429.5" y="191.5" font-family="Times New Roman" font-size="20">-</text>
	<path stroke="black" stroke-width="1" fill="none" d="M 700.941,69.392 A 92.213,92.213 0 0 1 700.941,216.608"/>
	<polygon fill="black" stroke-width="1" points="700.941,216.608 710.338,215.78 704.315,207.798"/>
	<text x="742.5" y="149.5" font-family="Times New Roman" font-size="20">-|</text>
	<polygon stroke="black" stroke-width="1" points="396.441,303.883 230.559,241.117"/>
	<polygon fill="black" stroke-width="1" points="230.559,241.117 236.271,248.624 239.81,239.271"/>
	<text x="304.5" y="293.5" font-family="Times New Roman" font-size="20">|</text>
	<path stroke="black" stroke-width="1" fill="none" d="M 414.909,286.084 A 360.838,360.838 0 0 1 414.909,83.916"/>
	<polygon fill="black" stroke-width="1" points="414.909,286.084 417.468,277.003 407.868,279.805"/>
	<text x="356.5" y="191.5" font-family="Times New Roman" font-size="20">view</text>
	<polygon stroke="black" stroke-width="1" points="376.036,459.056 414.964,342.944"/>
	<polygon fill="black" stroke-width="1" points="414.964,342.944 407.68,348.94 417.162,352.118"/>
	<text x="403.5" y="414.5" font-family="Times New Roman" font-size="20">view</text>
	<polygon stroke="black" stroke-width="1" points="452.938,304.945 646.062,240.055"/>
	<polygon fill="black" stroke-width="1" points="646.062,240.055 636.886,237.863 640.071,247.343"/>
	<text x="534.5" y="263.5" font-family="Times New Roman" font-size="20">-|</text>
	<polygon stroke="black" stroke-width="1" points="232.5,314.5 394.5,314.5"/>
	<polygon fill="black" stroke-width="1" points="394.5,314.5 386.5,309.5 386.5,319.5"/>
	<text x="294.5" y="335.5" font-family="Times New Roman" font-size="20">view</text>
	<polygon stroke="black" stroke-width="1" points="454.5,314.5 644.5,314.5"/>
	<polygon fill="black" stroke-width="1" points="644.5,314.5 636.5,309.5 636.5,319.5"/>
	<text x="530.5" y="305.5" font-family="Times New Roman" font-size="20">|post</text>
	<polygon stroke="black" stroke-width="1" points="454.5,55.5 644.5,55.5"/>
	<polygon fill="black" stroke-width="1" points="644.5,55.5 636.5,50.5 636.5,60.5"/>
	<text x="544.5" y="46.5" font-family="Times New Roman" font-size="20">n</text>
	<polygon stroke="black" stroke-width="1" points="646.289,65.704 514.711,113.296"/>
	<polygon fill="black" stroke-width="1" points="514.711,113.296 523.935,115.277 520.534,105.873"/>
	<text x="569.5" y="80.5" font-family="Times New Roman" font-size="20">-</text>
	<polygon stroke="black" stroke-width="1" points="477.238,152.034 433.762,285.966"/>
	<polygon fill="black" stroke-width="1" points="433.762,285.966 440.988,279.9 431.477,276.813"/>
	<text x="463.5" y="231.5" font-family="Times New Roman" font-size="20">view</text>
	<path stroke="black" stroke-width="1" fill="none" d="M 453.007,323.464 A 22.5,22.5 0 1 1 434.724,342.579"/>
	<text x="478.5" y="381.5" font-family="Times New Roman" font-size="20">where clause</text>
	<polygon fill="black" stroke-width="1" points="434.724,342.579 431.232,351.343 441.071,349.559"/>
	<polygon stroke="black" stroke-width="1" points="656.123,79.212 599.877,151.788"/>
	<polygon fill="black" stroke-width="1" points="599.877,151.788 608.73,148.527 600.826,142.401"/>
	<text x="633.5" y="135.5" font-family="Times New Roman" font-size="20">predicate</text>
	<polygon stroke="black" stroke-width="1" points="607.322,190.771 648.678,215.229"/>
	<polygon fill="black" stroke-width="1" points="648.678,215.229 644.337,206.853 639.247,215.46"/>
	<text x="632.5" y="193.5" font-family="Times New Roman" font-size="20">-|</text>
	<polygon stroke="black" stroke-width="1" points="555.184,161.096 512.816,137.904"/>
	<polygon fill="black" stroke-width="1" points="512.816,137.904 517.432,146.131 522.234,137.36"/>
	<text x="538.5" y="140.5" font-family="Times New Roman" font-size="20">-</text>
	<polygon stroke="black" stroke-width="1" points="224.673,507.708 259.327,539.292"/>
	<polygon fill="black" stroke-width="1" points="259.327,539.292 256.782,530.208 250.046,537.599"/>
	<text x="163.5" y="544.5" font-family="Times New Roman" font-size="20">predicate</text>
	<polygon stroke="black" stroke-width="1" points="304.391,540.11 343.609,506.89"/>
	<polygon fill="black" stroke-width="1" points="343.609,506.89 334.273,508.246 340.736,515.876"/>
	<text x="329.5" y="544.5" font-family="Times New Roman" font-size="20">-</text>
</svg>
